<?xml version="1.0" encoding="UTF-8" standalone="no"?>
<svg
   xmlns:dc="http://purl.org/dc/elements/1.1/"
   xmlns:cc="http://creativecommons.org/ns#"
   xmlns:rdf="http://www.w3.org/1999/02/22-rdf-syntax-ns#"
   xmlns:svg="http://www.w3.org/2000/svg"
   xmlns="http://www.w3.org/2000/svg"
   id="svg4683"
   version="1.1"
   viewBox="0 0 683.83636 259.23334"
   height="259.23334mm"
   width="683.83636mm">
  <defs
     id="defs4677">
    <filter
       height="1.0170422"
       y="-0.0085211108"
       width="1.004564"
       x="-0.0022820632"
       id="filter4632"
       style="color-interpolation-filters:sRGB">
      <feGaussianBlur
         id="feGaussianBlur4634"
         stdDeviation="0.65060874" />
    </filter>
  </defs>
  <metadata
     id="metadata4680">
    <rdf:RDF>
      <cc:Work
         rdf:about="">
        <dc:format>image/svg+xml</dc:format>
        <dc:type
           rdf:resource="http://purl.org/dc/dcmitype/StillImage" />
        <dc:title></dc:title>
      </cc:Work>
    </rdf:RDF>
  </metadata>
  <g
     transform="translate(234.63098,65.450005)"
     id="layer1">
    <rect
       y="-64.950005"
       x="-234.13098"
       height="258.23334"
       width="682.83636"
       id="rect4636"
       style="opacity:1;fill:#000000;fill-opacity:1;stroke:#fbfeff;stroke-width:1;stroke-linecap:butt;stroke-linejoin:round;stroke-miterlimit:4;stroke-dasharray:none;stroke-dashoffset:15.0047245;stroke-opacity:1" />
    <g
       style="fill:none;stroke:#fbfeff;stroke-opacity:1;filter:url(#filter4632)"
       id="g4622"
       transform="translate(24.208038,549.27498)">
      <path
         d="m 316.26268,-575.07222 h -467.76283 c -23.80302,0 -36.4576,36.10205 -62.53058,36.10196 26.07298,-9e-5 38.72756,36.10196 62.53058,36.10196 h 467.76283 c 23.80302,0 36.4576,-36.10205 62.53058,-36.10196 -26.07298,9e-5 -38.72756,-36.10196 -62.53058,-36.10196 z"
         style="opacity:1;fill:none;fill-opacity:1;stroke:#fbfeff;stroke-width:1;stroke-linecap:butt;stroke-linejoin:round;stroke-miterlimit:4;stroke-dasharray:none;stroke-dashoffset:15.0047245;stroke-opacity:1"
         id="path4596" />
      <path
         id="path4598"
         d="m 378.79327,-538.97017 h 45.70408"
         style="opacity:1;fill:none;fill-opacity:1;stroke:#fbfeff;stroke-width:1;stroke-linecap:butt;stroke-linejoin:round;stroke-miterlimit:4;stroke-dasharray:none;stroke-dashoffset:15.0047245;stroke-opacity:1" />
      <path
         style="opacity:1;fill:none;fill-opacity:1;stroke:#fbfeff;stroke-width:1;stroke-linecap:butt;stroke-linejoin:round;stroke-miterlimit:4;stroke-dasharray:none;stroke-dashoffset:15.0047245;stroke-opacity:1"
         d="m -259.73479,-538.97017 h 45.70406"
         id="path4600" />
      <path
         id="path4602"
         style="opacity:1;fill:none;fill-opacity:1;stroke:#fbfeff;stroke-width:1;stroke-linecap:butt;stroke-linejoin:round;stroke-miterlimit:4;stroke-dasharray:none;stroke-dashoffset:15.0047245;stroke-opacity:1"
         d="M 38.979479,-486.43437 H -179.93384 c -13.04645,0 -19.98243,19.78755 -34.27303,19.7875 14.2906,-5e-5 22.58297,19.78749 35.62942,19.78749 H 38.979479 c 13.046442,0 19.982422,-19.78754 34.27303,-19.78749 -14.290608,5e-5 -21.226588,-19.7875 -34.27303,-19.7875 z" />
      <path
         style="opacity:1;fill:none;fill-opacity:1;stroke:#fbfeff;stroke-width:1;stroke-linecap:butt;stroke-linejoin:round;stroke-miterlimit:4;stroke-dasharray:none;stroke-dashoffset:15.0047245;stroke-opacity:1"
         d="M 73.028181,-466.64682 H 91.734358"
         id="path4604" />
      <path
         id="path4606"
         d="m -259.7348,-466.64682 h 45.70407"
         style="opacity:1;fill:none;fill-opacity:1;stroke:#fbfeff;stroke-width:1;stroke-linecap:butt;stroke-linejoin:round;stroke-miterlimit:4;stroke-dasharray:none;stroke-dashoffset:15.0047245;stroke-opacity:1" />
      <path
         d="M 344.584,-486.43437 H 125.67109 c -13.04645,0 -19.98243,19.78755 -34.273035,19.7875 14.290605,-5e-5 21.226585,19.78749 34.273035,19.78749 H 344.584 c 13.04644,0 19.98242,-19.78754 34.27303,-19.78749 -14.29061,5e-5 -21.22659,-19.7875 -34.27303,-19.7875 z"
         style="opacity:1;fill:none;fill-opacity:1;stroke:#fbfeff;stroke-width:1;stroke-linecap:butt;stroke-linejoin:round;stroke-miterlimit:4;stroke-dasharray:none;stroke-dashoffset:15.0047245;stroke-opacity:1"
         id="path4608" />
      <path
         id="path4610"
         d="m 378.79327,-466.64682 h 45.70408"
         style="opacity:1;fill:none;fill-opacity:1;stroke:#fbfeff;stroke-width:1;stroke-linecap:butt;stroke-linejoin:round;stroke-miterlimit:4;stroke-dasharray:none;stroke-dashoffset:15.0047245;stroke-opacity:1" />
      <path
         d="M 38.979479,-431.40104 H -179.93384 c -13.04645,0 -19.98243,19.78755 -34.27303,19.7875 14.2906,-5e-5 22.58297,19.78749 35.62942,19.78749 H 38.979479 c 13.046442,0 19.982422,-19.78754 34.27303,-19.78749 -14.290608,5e-5 -21.226588,-19.7875 -34.27303,-19.7875 z"
         style="opacity:1;fill:none;fill-opacity:1;stroke:#fbfeff;stroke-width:1;stroke-linecap:butt;stroke-linejoin:round;stroke-miterlimit:4;stroke-dasharray:none;stroke-dashoffset:15.0047245;stroke-opacity:1"
         id="path4612" />
      <path
         id="path4614"
         d="M 73.028181,-411.61349 H 91.734358"
         style="opacity:1;fill:none;fill-opacity:1;stroke:#fbfeff;stroke-width:1;stroke-linecap:butt;stroke-linejoin:round;stroke-miterlimit:4;stroke-dasharray:none;stroke-dashoffset:15.0047245;stroke-opacity:1" />
      <path
         style="opacity:1;fill:none;fill-opacity:1;stroke:#fbfeff;stroke-width:1;stroke-linecap:butt;stroke-linejoin:round;stroke-miterlimit:4;stroke-dasharray:none;stroke-dashoffset:15.0047245;stroke-opacity:1"
         d="m -259.7348,-411.61349 h 45.70407"
         id="path4616" />
      <path
         id="path4618"
         style="opacity:1;fill:none;fill-opacity:1;stroke:#fbfeff;stroke-width:1;stroke-linecap:butt;stroke-linejoin:round;stroke-miterlimit:4;stroke-dasharray:none;stroke-dashoffset:15.0047245;stroke-opacity:1"
         d="M 344.584,-431.40104 H 125.67109 c -13.04645,0 -19.98243,19.78755 -34.273035,19.7875 14.290605,-5e-5 21.226585,19.78749 34.273035,19.78749 H 344.584 c 13.04644,0 19.98242,-19.78754 34.27303,-19.78749 -14.29061,5e-5 -21.22659,-19.7875 -34.27303,-19.7875 z" />
      <path
         style="opacity:1;fill:none;fill-opacity:1;stroke:#fbfeff;stroke-width:1;stroke-linecap:butt;stroke-linejoin:round;stroke-miterlimit:4;stroke-dasharray:none;stroke-dashoffset:15.0047245;stroke-opacity:1"
         d="m 378.79327,-411.61349 h 45.70408"
         id="path4620" />
    </g>
    <g
       id="g4594"
       transform="translate(24.208038,549.27498)">
      <path
         id="path4506"
         style="opacity:1;fill:#030375;fill-opacity:1;stroke:#9898ff;stroke-width:1;stroke-linecap:butt;stroke-linejoin:round;stroke-miterlimit:4;stroke-dasharray:none;stroke-dashoffset:15.0047245;stroke-opacity:1"
         d="m 316.26268,-575.07222 h -467.76283 c -23.80302,0 -36.4576,36.10205 -62.53058,36.10196 26.07298,-9e-5 38.72756,36.10196 62.53058,36.10196 h 467.76283 c 23.80302,0 36.4576,-36.10205 62.53058,-36.10196 -26.07298,9e-5 -38.72756,-36.10196 -62.53058,-36.10196 z" />
      <path
         style="opacity:1;fill:none;fill-opacity:1;stroke:#9898ff;stroke-width:1;stroke-linecap:butt;stroke-linejoin:round;stroke-miterlimit:4;stroke-dasharray:none;stroke-dashoffset:15.0047245;stroke-opacity:1"
         d="m 378.79327,-538.97017 h 45.70408"
         id="path4513" />
      <path
         id="path4521"
         d="m -259.73479,-538.97017 h 45.70406"
         style="opacity:1;fill:none;fill-opacity:1;stroke:#9898ff;stroke-width:1;stroke-linecap:butt;stroke-linejoin:round;stroke-miterlimit:4;stroke-dasharray:none;stroke-dashoffset:15.0047245;stroke-opacity:1" />
      <path
         d="M 38.979479,-486.43437 H -179.93384 c -13.04645,0 -19.98243,19.78755 -34.27303,19.7875 14.2906,-5e-5 22.58297,19.78749 35.62942,19.78749 H 38.979479 c 13.046442,0 19.982422,-19.78754 34.27303,-19.78749 -14.290608,5e-5 -21.226588,-19.7875 -34.27303,-19.7875 z"
         style="opacity:1;fill:#030375;fill-opacity:1;stroke:#9898ff;stroke-width:1;stroke-linecap:butt;stroke-linejoin:round;stroke-miterlimit:4;stroke-dasharray:none;stroke-dashoffset:15.0047245;stroke-opacity:1"
         id="path4528" />
      <path
         id="path4530"
         d="M 73.028181,-466.64682 H 91.734358"
         style="opacity:1;fill:none;fill-opacity:1;stroke:#9898ff;stroke-width:1;stroke-linecap:butt;stroke-linejoin:round;stroke-miterlimit:4;stroke-dasharray:none;stroke-dashoffset:15.0047245;stroke-opacity:1" />
      <path
         style="opacity:1;fill:none;fill-opacity:1;stroke:#9898ff;stroke-width:1;stroke-linecap:butt;stroke-linejoin:round;stroke-miterlimit:4;stroke-dasharray:none;stroke-dashoffset:15.0047245;stroke-opacity:1"
         d="m -259.7348,-466.64682 h 45.70407"
         id="path4532" />
      <path
         id="path4534"
         style="opacity:1;fill:#030375;fill-opacity:1;stroke:#9898ff;stroke-width:1;stroke-linecap:butt;stroke-linejoin:round;stroke-miterlimit:4;stroke-dasharray:none;stroke-dashoffset:15.0047245;stroke-opacity:1"
         d="M 344.584,-486.43437 H 125.67109 c -13.04645,0 -19.98243,19.78755 -34.273035,19.7875 14.290605,-5e-5 21.226585,19.78749 34.273035,19.78749 H 344.584 c 13.04644,0 19.98242,-19.78754 34.27303,-19.78749 -14.29061,5e-5 -21.22659,-19.7875 -34.27303,-19.7875 z" />
      <path
         style="opacity:1;fill:none;fill-opacity:1;stroke:#9898ff;stroke-width:1;stroke-linecap:butt;stroke-linejoin:round;stroke-miterlimit:4;stroke-dasharray:none;stroke-dashoffset:15.0047245;stroke-opacity:1"
         d="m 378.79327,-466.64682 h 45.70408"
         id="path4536" />
      <path
         id="path4571"
         style="opacity:1;fill:#030375;fill-opacity:1;stroke:#9898ff;stroke-width:1;stroke-linecap:butt;stroke-linejoin:round;stroke-miterlimit:4;stroke-dasharray:none;stroke-dashoffset:15.0047245;stroke-opacity:1"
         d="M 38.979479,-431.40104 H -179.93384 c -13.04645,0 -19.98243,19.78755 -34.27303,19.7875 14.2906,-5e-5 22.58297,19.78749 35.62942,19.78749 H 38.979479 c 13.046442,0 19.982422,-19.78754 34.27303,-19.78749 -14.290608,5e-5 -21.226588,-19.7875 -34.27303,-19.7875 z" />
      <path
         style="opacity:1;fill:none;fill-opacity:1;stroke:#9898ff;stroke-width:1;stroke-linecap:butt;stroke-linejoin:round;stroke-miterlimit:4;stroke-dasharray:none;stroke-dashoffset:15.0047245;stroke-opacity:1"
         d="M 73.028181,-411.61349 H 91.734358"
         id="path4573" />
      <path
         id="path4575"
         d="m -259.7348,-411.61349 h 45.70407"
         style="opacity:1;fill:none;fill-opacity:1;stroke:#9898ff;stroke-width:1;stroke-linecap:butt;stroke-linejoin:round;stroke-miterlimit:4;stroke-dasharray:none;stroke-dashoffset:15.0047245;stroke-opacity:1" />
      <path
         d="M 344.584,-431.40104 H 125.67109 c -13.04645,0 -19.98243,19.78755 -34.273035,19.7875 14.290605,-5e-5 21.226585,19.78749 34.273035,19.78749 H 344.584 c 13.04644,0 19.98242,-19.78754 34.27303,-19.78749 -14.29061,5e-5 -21.22659,-19.7875 -34.27303,-19.7875 z"
         style="opacity:1;fill:#030375;fill-opacity:1;stroke:#9898ff;stroke-width:1;stroke-linecap:butt;stroke-linejoin:round;stroke-miterlimit:4;stroke-dasharray:none;stroke-dashoffset:15.0047245;stroke-opacity:1"
         id="path4577" />
      <path
         id="path4579"
         d="m 378.79327,-411.61349 h 45.70408"
         style="opacity:1;fill:none;fill-opacity:1;stroke:#9898ff;stroke-width:1;stroke-linecap:butt;stroke-linejoin:round;stroke-miterlimit:4;stroke-dasharray:none;stroke-dashoffset:15.0047245;stroke-opacity:1" />
    </g>
  </g>
</svg>
